<svg width="28" height="28" viewBox="0 0 28 28" fill="none" xmlns="http://www.w3.org/2000/svg">
<path d="M14.4304 2.5075L24.9304 6.70747C25.3387 6.8708 25.6654 7.3608 25.6654 7.79246V11.6658C25.6654 12.3075 25.1404 12.8325 24.4987 12.8325H3.4987C2.85703 12.8325 2.33203 12.3075 2.33203 11.6658V7.79246C2.33203 7.3608 2.6587 6.8708 3.06704 6.70747L13.567 2.5075C13.8004 2.41417 14.197 2.41417 14.4304 2.5075Z" stroke="#C1B197" stroke-width="2.2" stroke-miterlimit="10" stroke-linecap="round" stroke-linejoin="round"/>
<path d="M25.6654 25.6667H2.33203V22.1667C2.33203 21.525 2.85703 21 3.4987 21H24.4987C25.1404 21 25.6654 21.525 25.6654 22.1667V25.6667Z" stroke="#C1B197" stroke-width="2.2" stroke-miterlimit="10" stroke-linecap="round" stroke-linejoin="round"/>
<path d="M4.66797 21.0026V12.8359" stroke="#C1B197" stroke-width="2.2" stroke-miterlimit="10" stroke-linecap="round" stroke-linejoin="round"/>
<path d="M9.33203 21.0026V12.8359" stroke="#C1B197" stroke-width="2.2" stroke-miterlimit="10" stroke-linecap="round" stroke-linejoin="round"/>
<path d="M14 21.0026V12.8359" stroke="#C1B197" stroke-width="2.2" stroke-miterlimit="10" stroke-linecap="round" stroke-linejoin="round"/>
<path d="M18.668 21.0026V12.8359" stroke="#C1B197" stroke-width="2.2" stroke-miterlimit="10" stroke-linecap="round" stroke-linejoin="round"/>
<path d="M23.332 21.0026V12.8359" stroke="#C1B197" stroke-width="2.2" stroke-miterlimit="10" stroke-linecap="round" stroke-linejoin="round"/>
<path d="M1.16797 25.6641H26.8346" stroke="#C1B197" stroke-width="2.2" stroke-miterlimit="10" stroke-linecap="round" stroke-linejoin="round"/>
<path d="M14 9.91406C14.9665 9.91406 15.75 9.13056 15.75 8.16406C15.75 7.19756 14.9665 6.41406 14 6.41406C13.0335 6.41406 12.25 7.19756 12.25 8.16406C12.25 9.13056 13.0335 9.91406 14 9.91406Z" stroke="#C1B197" stroke-width="2.2" stroke-miterlimit="10" stroke-linecap="round" stroke-linejoin="round"/>
</svg>
