<svg width="28" height="22" viewBox="0 0 28 22" fill="none" xmlns="http://www.w3.org/2000/svg">
<path d="M22.5178 6.24267V12.251C22.5178 15.8444 20.4644 17.3843 17.3844 17.3843H7.12942C6.60442 17.3843 6.10275 17.3377 5.63609 17.2327C5.34442 17.186 5.06443 17.1044 4.80776 17.011C3.05776 16.3577 1.99609 14.841 1.99609 12.251V6.24267C1.99609 2.64933 4.04942 1.10938 7.12942 1.10938H17.3844C19.9978 1.10938 21.8761 2.2177 22.3778 4.74937C22.4594 5.21604 22.5178 5.69433 22.5178 6.24267Z" stroke="#5C7AC4" stroke-width="2.2" stroke-miterlimit="10" stroke-linecap="round" stroke-linejoin="round"/>
<path d="M26.0184 9.7433V15.7517C26.0184 19.345 23.9651 20.8849 20.8851 20.8849H10.6301C9.76672 20.8849 8.98506 20.7683 8.3084 20.5117C6.92006 19.9983 5.97505 18.9367 5.63672 17.2333C6.10339 17.3383 6.60505 17.3849 7.13005 17.3849H17.3851C20.4651 17.3849 22.5184 15.845 22.5184 12.2517V6.2433C22.5184 5.69496 22.4717 5.205 22.3784 4.75C24.5951 5.21667 26.0184 6.77996 26.0184 9.7433Z" stroke="#5C7AC4" stroke-width="2.2" stroke-miterlimit="10" stroke-linecap="round" stroke-linejoin="round"/>
<path d="M12.248 12.3319C13.949 12.3319 15.328 10.9529 15.328 9.25189C15.328 7.55085 13.949 6.17188 12.248 6.17188C10.5469 6.17188 9.16797 7.55085 9.16797 9.25189C9.16797 10.9529 10.5469 12.3319 12.248 12.3319Z" stroke="#5C7AC4" stroke-width="2.2" stroke-miterlimit="10" stroke-linecap="round" stroke-linejoin="round"/>
<path d="M5.57812 6.6875V11.8209" stroke="#5C7AC4" stroke-width="2.2" stroke-miterlimit="10" stroke-linecap="round" stroke-linejoin="round"/>
<path d="M18.9258 6.6875V11.8209" stroke="#5C7AC4" stroke-width="2.2" stroke-miterlimit="10" stroke-linecap="round" stroke-linejoin="round"/>
</svg>
