<svg width="21" height="20" viewBox="0 0 21 20" fill="none" xmlns="http://www.w3.org/2000/svg">
<path d="M18.3411 7.0974V3.31406C18.3411 2.13906 17.8078 1.66406 16.4828 1.66406H13.1161C11.7911 1.66406 11.2578 2.13906 11.2578 3.31406V7.08906C11.2578 8.2724 11.7911 8.73906 13.1161 8.73906H16.4828C17.8078 8.7474 18.3411 8.2724 18.3411 7.0974Z" stroke="#5C7AC4" stroke-width="1.5" stroke-linecap="round" stroke-linejoin="round"/>
<path d="M18.3411 16.475V13.1083C18.3411 11.7833 17.8078 11.25 16.4828 11.25H13.1161C11.7911 11.25 11.2578 11.7833 11.2578 13.1083V16.475C11.2578 17.8 11.7911 18.3333 13.1161 18.3333H16.4828C17.8078 18.3333 18.3411 17.8 18.3411 16.475Z" stroke="#5C7AC4" stroke-width="1.5" stroke-linecap="round" stroke-linejoin="round"/>
<path d="M8.75911 7.0974V3.31406C8.75911 2.13906 8.22578 1.66406 6.90078 1.66406H3.53411C2.20911 1.66406 1.67578 2.13906 1.67578 3.31406V7.08906C1.67578 8.2724 2.20911 8.73906 3.53411 8.73906H6.90078C8.22578 8.7474 8.75911 8.2724 8.75911 7.0974Z" stroke="#5C7AC4" stroke-width="1.5" stroke-linecap="round" stroke-linejoin="round"/>
<path d="M8.75911 16.475V13.1083C8.75911 11.7833 8.22578 11.25 6.90078 11.25H3.53411C2.20911 11.25 1.67578 11.7833 1.67578 13.1083V16.475C1.67578 17.8 2.20911 18.3333 3.53411 18.3333H6.90078C8.22578 18.3333 8.75911 17.8 8.75911 16.475Z" stroke="#5C7AC4" stroke-width="1.5" stroke-linecap="round" stroke-linejoin="round"/>
</svg>
