<svg width="21" height="20" viewBox="0 0 21 20" fill="none" xmlns="http://www.w3.org/2000/svg">
<path d="M16.5924 11.25H3.42578C2.17578 11.25 1.67578 11.7833 1.67578 13.1083V16.475C1.67578 17.8 2.17578 18.3333 3.42578 18.3333H16.5924C17.8424 18.3333 18.3424 17.8 18.3424 16.475V13.1083C18.3424 11.7833 17.8424 11.25 16.5924 11.25Z" stroke="#5C7AC4" stroke-width="1.5" stroke-linecap="round" stroke-linejoin="round"/>
<path d="M16.5924 1.66406H3.42578C2.17578 1.66406 1.67578 2.1974 1.67578 3.5224V6.88906C1.67578 8.21406 2.17578 8.7474 3.42578 8.7474H16.5924C17.8424 8.7474 18.3424 8.21406 18.3424 6.88906V3.5224C18.3424 2.1974 17.8424 1.66406 16.5924 1.66406Z" stroke="#5C7AC4" stroke-width="1.5" stroke-linecap="round" stroke-linejoin="round"/>
</svg>
