<svg width="20" height="20" viewBox="0 0 20 20" fill="none" xmlns="http://www.w3.org/2000/svg">
<path d="M5.60964 16.4141C6.29297 15.6807 7.33464 15.7391 7.93464 16.5391L8.7763 17.6641C9.4513 18.5557 10.543 18.5557 11.218 17.6641L12.0596 16.5391C12.6596 15.7391 13.7013 15.6807 14.3846 16.4141C15.868 17.9974 17.0763 17.4724 17.0763 15.2557V5.86406C17.0846 2.50573 16.3013 1.66406 13.1513 1.66406H6.8513C3.7013 1.66406 2.91797 2.50573 2.91797 5.86406V15.2474C2.91797 17.4724 4.13464 17.9891 5.60964 16.4141Z" stroke="#5F6B81" stroke-width="1.5" stroke-linecap="round" stroke-linejoin="round"/>
<path d="M6.74803 9.16667H6.75551" stroke="#5F6B81" stroke-width="2" stroke-linecap="round" stroke-linejoin="round"/>
<path d="M9.08203 9.16406H13.6654" stroke="#5F6B81" stroke-width="1.5" stroke-linecap="round" stroke-linejoin="round"/>
<path d="M6.74803 5.83073H6.75551" stroke="#5F6B81" stroke-width="2" stroke-linecap="round" stroke-linejoin="round"/>
<path d="M9.08203 5.83594H13.6654" stroke="#5F6B81" stroke-width="1.5" stroke-linecap="round" stroke-linejoin="round"/>
</svg>
