<svg width="20" height="20" viewBox="0 0 20 20" fill="none" xmlns="http://www.w3.org/2000/svg">
<path d="M5.83203 4.16406C5.83203 2.78073 6.9487 1.66406 8.33203 1.66406H11.6654C13.0487 1.66406 14.1654 2.78073 14.1654 4.16406C14.1654 4.6224 13.7904 4.9974 13.332 4.9974H6.66536C6.20703 4.9974 5.83203 4.6224 5.83203 4.16406Z" fill="#5C7AC4"/>
<path d="M14.7904 12.5C14.7904 12.8417 14.507 13.125 14.1654 13.125H13.332V15.8333C13.332 17.2167 12.2154 18.3333 10.832 18.3333H9.16536C7.78203 18.3333 6.66536 17.2167 6.66536 15.8333V13.125H5.83203C5.49036 13.125 5.20703 12.8417 5.20703 12.5C5.20703 12.1583 5.49036 11.875 5.83203 11.875H14.1654C14.507 11.875 14.7904 12.1583 14.7904 12.5Z" fill="#5C7AC4"/>
<path d="M15 5.83594H5C3.33333 5.83594 2.5 6.66927 2.5 8.33594V12.5026C2.5 14.1693 3.33333 15.0026 5 15.0026H5.3125C5.60015 15.0026 5.83333 14.7694 5.83333 14.4818C5.83333 14.1941 5.59275 13.9696 5.32368 13.868C4.77182 13.6594 4.375 13.1237 4.375 12.5026C4.375 11.7026 5.03333 11.0443 5.83333 11.0443H14.1667C14.9667 11.0443 15.625 11.7026 15.625 12.5026C15.625 13.1237 15.2282 13.6594 14.6763 13.868C14.4072 13.9696 14.1667 14.1941 14.1667 14.4818C14.1667 14.7694 14.3999 15.0026 14.6875 15.0026H15C16.6667 15.0026 17.5 14.1693 17.5 12.5026V8.33594C17.5 6.66927 16.6667 5.83594 15 5.83594ZM8.33333 9.79427H5.83333C5.49167 9.79427 5.20833 9.51094 5.20833 9.16927C5.20833 8.8276 5.49167 8.54427 5.83333 8.54427H8.33333C8.675 8.54427 8.95833 8.8276 8.95833 9.16927C8.95833 9.51094 8.675 9.79427 8.33333 9.79427Z" fill="#5C7AC4"/>
</svg>
