<svg width="22" height="19" viewBox="0 0 22 19" fill="none" xmlns="http://www.w3.org/2000/svg">
<path d="M12 13.5C12 14.39 12.18 15.23 12.5 16H5.5C4 16 2.69 15.5 1.61 14.43C0.54 13.38 0 12.09 0 10.58C0 9.28 0.39 8.12 1.17 7.1C1.95 6.08 3 5.43 4.25 5.15C4.67 3.62 5.5 2.38 6.75 1.43C8 0.48 9.42 0 11 0C12.95 0 14.6 0.68 15.96 2.04C17.32 3.4 18 5.05 18 7H18.1C14.7 7.23 12 10.05 12 13.5ZM18 9.5V8L15.75 10.25L18 12.5V11C18.663 11 19.2989 11.2634 19.7678 11.7322C20.2366 12.2011 20.5 12.837 20.5 13.5C20.5 13.9 20.41 14.28 20.24 14.62L21.33 15.71C21.75 15.08 22 14.32 22 13.5C22 11.29 20.21 9.5 18 9.5ZM18 16C17.337 16 16.7011 15.7366 16.2322 15.2678C15.7634 14.7989 15.5 14.163 15.5 13.5C15.5 13.1 15.59 12.72 15.76 12.38L14.67 11.29C14.25 11.92 14 12.68 14 13.5C14 15.71 15.79 17.5 18 17.5V19L20.25 16.75L18 14.5V16Z" fill="#5C7AC4"/>
</svg>
